<mxfile host="app.diagrams.net" modified="2023-10-25T13:56:58.677Z" agent="Mozilla/5.0 (Linux; Android 10; K) AppleWebKit/537.36 (KHTML, like Gecko) Chrome/117.0.0.0 Mobile Safari/537.36" version="22.0.8" etag="9B6TOfEiS6ZDbVu8N2jT" type="github">
  <diagram name="Halaman-1" id="IgWNmgp1Rhbr3lmEFKwX">
    <mxGraphModel>
      <root>
        <mxCell id="0" />
        <mxCell id="1" parent="0" />
      </root>
    </mxGraphModel>
  </diagram>
</mxfile>
